# xmcd CD database file
#
# Track frame offsets:
#	150
#	12002
#	31600
#	46415
#	63285
#	82455
#	94227
#	106890
#	123027
#	140715
#	159725
#	179500
#
# Disc length: 2597 seconds
#
# Revision: 1
# Processed by: cddbd v1.4PL0 Copyright (c) Steve Scherf et al.
# Submitted via: CDex 1.50beta9
#
DISCID=9b0a230c
DTITLE=Brendan Shine - A Picture Of My World
DYEAR=1988
DGENRE=Country
TTITLE0=A Picture Of My World
TTITLE1=Loneliness
TTITLE2=Now I'm Sixty Four
TTITLE3=Me Mother From The County Of Mayo
TTITLE4=Am I That Easy To Forgrt
TTITLE5=Katie Daly 
TTITLE6=Golden Dreams
TTITLE7=Northlands
TTITLE8=Song For Maria
TTITLE9=Lost In The City
TTITLE10=East End ROse
TTITLE11=Me Uncle Mick
EXTD=YEAR: 1988
EXTT0=
EXTT1=
EXTT2=
EXTT3=
EXTT4=
EXTT5=
EXTT6=
EXTT7=
EXTT8=
EXTT9=
EXTT10=
EXTT11=
PLAYORDER=
